# Blender v2.77 (sub 0) OBJ File: 'tree_Tret.blend'
# www.blender.org
mtllib rock_1.mtl
o Rock_1_Cylinder.007
v -0.106722 0.476778 0.226865
v 0.139031 0.564198 0.226865
v 0.253969 0.540166 0.244868
v 0.275020 0.268202 0.244868
v 0.359328 0.403265 0.244868
v -0.107738 0.371979 0.312359
v -0.003615 0.110984 0.210815
v 0.268018 0.438164 0.429573
v -0.070586 0.360610 0.501351
v 0.038885 0.274816 0.501351
v -0.125722 0.219819 0.364969
v 0.316922 0.328309 0.412116
v 0.166641 0.549396 0.369873
v 0.352397 0.067402 0.198203
v 0.477340 -0.094080 0.198203
v 0.487487 -0.185433 0.212296
v 0.290327 -0.267400 0.212296
v 0.411345 -0.297180 0.212296
v 0.274198 0.042606 0.265125
v 0.105450 -0.098476 0.185640
v 0.415042 -0.220753 0.356875
v 0.274799 0.012200 0.413060
v 0.237674 -0.090145 0.413060
v 0.156633 0.018885 0.306306
v 0.345252 -0.283912 0.343211
v 0.473061 -0.118227 0.310144
v -0.212682 -0.070726 0.244023
v 0.126971 -0.173556 0.215383
v 0.236201 -0.291838 0.234647
v 0.041400 -0.607425 0.267598
v 0.242104 -0.527354 0.244461
v -0.286428 -0.179832 0.373403
v -0.394765 -0.556657 0.261215
v 0.194376 -0.404119 0.497243
v -0.229724 -0.211049 0.628684
v -0.178361 -0.393788 0.631730
v -0.421093 -0.329172 0.465368
v 0.157699 -0.565321 0.483974
v 0.164361 -0.203578 0.409372
vn 0.3080 -0.0140 0.9513
vn -0.5594 0.8136 0.1589
vn -0.9625 0.1830 0.2002
vn -0.1296 -0.8555 0.5014
vn -0.8135 -0.1018 -0.5725
vn 0.1947 0.9788 0.0637
vn 0.3026 -0.8485 0.4342
vn 0.8481 -0.5294 -0.0222
vn 0.8698 0.3288 0.3679
vn 0.7638 0.5878 0.2665
vn 0.5872 0.7266 0.3566
vn -0.5609 0.8054 0.1917
vn -0.2198 0.6179 0.7549
vn -0.9181 -0.2451 -0.3114
vn 0.4639 -0.8643 0.1944
vn -0.4229 -0.5396 0.7280
vn 0.1585 0.2023 0.9664
vn 0.0629 0.5159 0.8543
vn 0.0826 -0.2971 0.9513
vn 0.5989 0.7849 0.1589
vn -0.1259 0.9716 0.2002
vn -0.8533 -0.1433 0.5014
vn -0.3501 0.7414 -0.5725
vn 0.9907 0.1199 0.0637
vn -0.7120 -0.5518 0.4342
vn -0.2389 -0.9708 -0.0222
vn 0.5833 -0.7241 0.3679
vn 0.7965 -0.5427 0.2665
vn 0.8734 -0.3317 0.3566
vn 0.5906 0.7839 0.1917
vn 0.5187 0.4014 0.7549
vn -0.5189 0.7961 -0.3114
vn -0.6768 -0.7100 0.1944
vn -0.6445 0.2338 0.7280
vn 0.2416 -0.0876 0.9664
vn 0.5098 0.1009 0.8543
vn 0.3317 -0.1521 0.9310
vn 0.0434 0.9928 0.1118
vn -0.6468 0.7264 0.2325
vn -0.5576 -0.5893 0.5847
vn -0.7692 0.3751 -0.5172
vn 0.7372 0.6746 -0.0377
vn -0.2127 -0.8427 0.4946
vn 0.3688 -0.9294 -0.0174
vn 0.9278 -0.2350 0.2897
vn 0.9849 0.0318 0.1705
vn 0.9331 0.2520 0.2564
vn 0.0405 0.9886 0.1452
vn 0.2594 0.6604 0.7047
vn -0.9121 0.3333 -0.2388
vn -0.1156 -0.9615 0.2492
vn -0.5859 -0.1514 0.7961
vn 0.3400 0.1111 0.9338
vn 0.4364 0.4151 0.7983
usemtl Material.001
s off
f 12//1 8//1 10//1
f 13//2 6//2 9//2
f 9//3 6//3 11//3
f 7//4 10//4 11//4
f 6//5 7//5 11//5
f 3//6 2//6 13//6
f 7//7 12//7 10//7
f 4//8 5//8 12//8
f 5//9 8//9 12//9
f 5//10 3//10 8//10
f 3//11 13//11 8//11
f 2//12 6//12 13//12
f 2//13 1//13 6//13
f 1//14 7//14 6//14
f 4//15 12//15 7//15
f 10//16 9//16 11//16
f 10//17 8//17 9//17
f 8//18 13//18 9//18
f 25//19 21//19 23//19
f 26//20 19//20 22//20
f 22//21 19//21 24//21
f 20//22 23//22 24//22
f 19//23 20//23 24//23
f 16//24 15//24 26//24
f 20//25 25//25 23//25
f 17//26 18//26 25//26
f 18//27 21//27 25//27
f 18//28 16//28 21//28
f 16//29 26//29 21//29
f 15//30 19//30 26//30
f 15//31 14//31 19//31
f 14//32 20//32 19//32
f 17//33 25//33 20//33
f 23//34 22//34 24//34
f 23//35 21//35 22//35
f 21//36 26//36 22//36
f 38//37 34//37 36//37
f 39//38 32//38 35//38
f 35//39 32//39 37//39
f 33//40 36//40 37//40
f 32//41 33//41 37//41
f 29//42 28//42 39//42
f 33//43 38//43 36//43
f 30//44 31//44 38//44
f 31//45 34//45 38//45
f 31//46 29//46 34//46
f 29//47 39//47 34//47
f 28//48 32//48 39//48
f 28//49 27//49 32//49
f 27//50 33//50 32//50
f 30//51 38//51 33//51
f 36//52 35//52 37//52
f 36//53 34//53 35//53
f 34//54 39//54 35//54
