# Blender v2.77 (sub 0) OBJ File: 'untitled.blend'
# www.blender.org
mtllib city_1_0.mtl
o Sphere
v -0.625214 0.113594 0.556054
v -0.604386 0.142260 0.468404
v -0.594138 0.070821 0.556054
v -0.560439 0.081771 0.468404
v -0.594138 0.017952 0.556054
v -0.560439 0.007002 0.468404
v -0.625214 -0.024821 0.556054
v -0.604386 -0.053487 0.468404
v -0.675496 -0.041158 0.556054
v -0.675496 -0.076592 0.468404
v -0.725778 -0.024821 0.556054
v -0.746605 -0.053487 0.468404
v -0.756853 0.017952 0.556054
v -0.790553 0.007002 0.468404
v -0.756853 0.070821 0.556054
v -0.790553 0.081771 0.468404
v -0.675496 0.044387 0.591488
v -0.725778 0.113593 0.556054
v -0.746605 0.142260 0.468404
v -0.675496 0.129931 0.556054
v -0.675496 0.165365 0.468404
v -0.562126 0.010545 -0.064797
v -0.603933 -0.049702 -0.064797
v -0.603933 -0.049702 0.468228
v -0.673169 -0.073869 -0.064797
v -0.673169 -0.073869 0.468228
v -0.743386 -0.052724 -0.064797
v -0.743386 -0.052724 0.468228
v -0.787765 0.005654 -0.064797
v -0.787765 0.005654 0.468228
v -0.789353 0.078969 -0.064797
v -0.789353 0.078969 0.468228
v -0.747546 0.139215 -0.064797
v -0.747546 0.139215 0.468228
v -0.678311 0.163382 -0.064797
v -0.678311 0.163382 0.468228
v -0.608093 0.142238 -0.064797
v -0.608093 0.142238 0.468228
v -0.563715 0.083859 -0.064797
v -0.562126 0.010545 0.468228
v -0.563715 0.083859 0.468228
v -0.470725 -0.456032 0.008743
v -0.470725 -0.456032 0.176866
v -0.149563 -0.456032 0.008743
v -0.149563 -0.456032 0.176866
v -0.470725 -0.757833 0.008743
v -0.470725 -0.757833 0.176866
v -0.149563 -0.757833 0.008743
v -0.149563 -0.757833 0.176866
v -0.149563 -0.606933 0.295195
v -0.149563 -0.606933 0.008743
v -0.470725 -0.606933 0.295195
v -0.470725 -0.606933 0.008743
v -0.470725 -0.081456 0.008743
v -0.470725 -0.081456 0.176866
v -0.149563 -0.081456 0.008743
v -0.149563 -0.081456 0.176866
v -0.470725 -0.383257 0.008743
v -0.470725 -0.383257 0.176866
v -0.149563 -0.383257 0.008743
v -0.149563 -0.383257 0.176866
v -0.149563 -0.232357 0.295195
v -0.149563 -0.232357 0.008743
v -0.470725 -0.232357 0.295195
v -0.470725 -0.232357 0.008743
v -0.552582 0.561260 -0.007041
v -0.552582 0.561260 0.184773
v -0.039491 0.486373 -0.007041
v -0.039491 0.486373 0.184773
v -0.602311 0.220542 -0.007041
v -0.602311 0.220542 0.184773
v -0.089220 0.145655 -0.007041
v -0.089220 0.145655 0.184773
v -0.064355 0.316014 0.319776
v -0.064355 0.316014 -0.007041
v -0.577446 0.390901 0.319776
v -0.577446 0.390901 -0.007041
v -0.349822 0.846131 0.008743
v -0.349822 0.846131 0.176866
v -0.028660 0.846131 0.008743
v -0.028660 0.846131 0.176866
v -0.349822 0.544330 0.008743
v -0.349822 0.544330 0.176866
v -0.028660 0.544330 0.008743
v -0.028660 0.544330 0.176866
v -0.028660 0.695230 0.295195
v -0.028660 0.695230 0.008743
v -0.349822 0.695230 0.295195
v -0.349822 0.695230 0.008743
v 0.296415 -0.270423 0.005963
v 0.296415 -0.270423 0.159477
v 0.589671 -0.270423 0.005963
v 0.589671 -0.270423 0.159478
v 0.296415 -0.546000 0.005963
v 0.296415 -0.546000 0.159477
v 0.589671 -0.546000 0.005963
v 0.589671 -0.546000 0.159478
v 0.589671 -0.408212 0.267525
v 0.589671 -0.408212 0.005963
v 0.296415 -0.408212 0.267525
v 0.296415 -0.408212 0.005963
v 0.296415 0.071605 0.005963
v 0.296415 0.071605 0.159477
v 0.589671 0.071605 0.005963
v 0.589671 0.071605 0.159478
v 0.296415 -0.203972 0.005963
v 0.296415 -0.203972 0.159477
v 0.589671 -0.203972 0.005963
v 0.589671 -0.203972 0.159478
v 0.589671 -0.066183 0.267525
v 0.589671 -0.066183 0.005963
v 0.296415 -0.066183 0.267525
v 0.296415 -0.066183 0.005963
v 0.338719 0.724464 0.005963
v 0.338719 0.724464 0.159477
v 0.593146 0.578635 0.005963
v 0.593146 0.578635 0.159478
v 0.201682 0.485375 0.005963
v 0.201682 0.485375 0.159477
v 0.456108 0.339546 0.005963
v 0.456108 0.339546 0.159478
v 0.524627 0.459091 0.267525
v 0.524627 0.459091 0.005963
v 0.270200 0.604920 0.267525
v 0.270200 0.604920 0.005963
vn 0.8216 -0.5701 0.0000
vn 0.3296 -0.9441 0.0000
vn -0.2883 -0.9575 0.0000
vn -0.7961 -0.6052 0.0000
vn -0.9998 -0.0217 0.0000
vn -0.8216 0.5701 0.0000
vn -0.3296 0.9441 0.0000
vn 0.2883 0.9575 0.0000
vn 0.7961 0.6052 0.0000
vn 0.9998 0.0217 0.0000
vn 0.0000 0.0000 -1.0000
vn 0.0000 1.0000 0.0000
vn 1.0000 0.0000 0.0000
vn 0.0000 -1.0000 0.0000
vn -1.0000 0.0000 0.0000
vn 0.1444 0.9895 0.0000
vn 0.9895 -0.1444 0.0000
vn -0.1444 -0.9895 0.0000
vn -0.9895 0.1444 0.0000
vn 0.4973 0.8676 0.0000
vn 0.8676 -0.4973 0.0000
vn -0.4973 -0.8676 0.0000
vn -0.8676 0.4973 0.0000
vn 0.1234 0.3798 0.9168
vn 0.2884 0.8877 0.3589
vn 0.7551 0.5486 0.3589
vn 0.3230 0.2347 0.9168
vn 0.9334 0.0000 0.3589
vn 0.3993 0.0000 0.9168
vn 0.3230 -0.2347 0.9168
vn 0.7551 -0.5486 0.3589
vn 0.1234 -0.3798 0.9168
vn 0.2884 -0.8877 0.3589
vn -0.1234 -0.3798 0.9168
vn -0.2884 -0.8877 0.3589
vn -0.3230 -0.2347 0.9168
vn -0.7551 -0.5486 0.3589
vn -0.3993 0.0000 0.9168
vn -0.9334 0.0000 0.3589
vn -0.3230 0.2347 0.9168
vn -0.7551 0.5486 0.3589
vn -0.2884 0.8877 0.3589
vn -0.1234 0.3798 0.9168
vn -0.0000 0.6171 0.7869
vn -0.0000 -0.6171 0.7869
vn 0.0891 0.6106 0.7869
vn -0.0891 -0.6106 0.7869
vn 0.3068 0.5354 0.7869
vn -0.3068 -0.5354 0.7869
usemtl Material.010
s off
f 40//1 23//1 22//1
f 24//2 25//2 23//2
f 26//3 27//3 25//3
f 28//4 29//4 27//4
f 30//5 31//5 29//5
f 32//6 33//6 31//6
f 34//7 35//7 33//7
f 36//8 37//8 35//8
f 38//9 39//9 37//9
f 41//10 22//10 39//10
f 27//11 35//11 39//11
f 43//12 44//12 42//12
f 49//13 51//13 50//13
f 47//14 48//14 49//14
f 43//15 53//15 52//15
f 51//11 46//11 53//11
f 44//11 53//11 42//11
f 47//15 53//15 46//15
f 45//13 51//13 44//13
f 55//12 56//12 54//12
f 61//13 63//13 62//13
f 59//14 60//14 61//14
f 55//15 65//15 64//15
f 63//11 58//11 65//11
f 56//11 65//11 54//11
f 59//15 65//15 58//15
f 57//13 63//13 56//13
f 69//16 66//16 67//16
f 73//17 75//17 74//17
f 71//18 72//18 73//18
f 67//19 77//19 76//19
f 77//11 72//11 70//11
f 66//11 75//11 77//11
f 71//19 77//19 70//19
f 69//17 75//17 68//17
f 79//12 80//12 78//12
f 85//13 87//13 86//13
f 83//14 84//14 85//14
f 79//15 89//15 88//15
f 87//11 82//11 89//11
f 80//11 89//11 78//11
f 83//15 89//15 82//15
f 81//13 87//13 80//13
f 91//12 92//12 90//12
f 97//13 99//13 98//13
f 95//14 96//14 97//14
f 91//15 101//15 100//15
f 99//11 94//11 101//11
f 92//11 101//11 90//11
f 95//15 101//15 94//15
f 93//13 99//13 92//13
f 103//12 104//12 102//12
f 109//13 111//13 110//13
f 107//14 108//14 109//14
f 103//15 113//15 112//15
f 111//11 106//11 113//11
f 104//11 113//11 102//11
f 107//15 113//15 106//15
f 105//13 111//13 104//13
f 115//20 116//20 114//20
f 121//21 123//21 122//21
f 119//22 120//22 121//22
f 115//23 125//23 124//23
f 125//11 120//11 118//11
f 116//11 125//11 114//11
f 119//23 125//23 118//23
f 117//21 123//21 116//21
f 40//1 24//1 23//1
f 24//2 26//2 25//2
f 26//3 28//3 27//3
f 28//4 30//4 29//4
f 30//5 32//5 31//5
f 32//6 34//6 33//6
f 34//7 36//7 35//7
f 36//8 38//8 37//8
f 38//9 41//9 39//9
f 41//10 40//10 22//10
f 39//11 22//11 23//11
f 23//11 25//11 39//11
f 27//11 29//11 31//11
f 31//11 33//11 27//11
f 35//11 37//11 39//11
f 39//11 25//11 27//11
f 27//11 33//11 35//11
f 43//12 45//12 44//12
f 49//13 48//13 51//13
f 47//14 46//14 48//14
f 43//15 42//15 53//15
f 51//11 48//11 46//11
f 44//11 51//11 53//11
f 47//15 52//15 53//15
f 45//13 50//13 51//13
f 55//12 57//12 56//12
f 61//13 60//13 63//13
f 59//14 58//14 60//14
f 55//15 54//15 65//15
f 63//11 60//11 58//11
f 56//11 63//11 65//11
f 59//15 64//15 65//15
f 57//13 62//13 63//13
f 69//16 68//16 66//16
f 73//17 72//17 75//17
f 71//18 70//18 72//18
f 67//19 66//19 77//19
f 77//11 75//11 72//11
f 66//11 68//11 75//11
f 71//19 76//19 77//19
f 69//17 74//17 75//17
f 79//12 81//12 80//12
f 85//13 84//13 87//13
f 83//14 82//14 84//14
f 79//15 78//15 89//15
f 87//11 84//11 82//11
f 80//11 87//11 89//11
f 83//15 88//15 89//15
f 81//13 86//13 87//13
f 91//12 93//12 92//12
f 97//13 96//13 99//13
f 95//14 94//14 96//14
f 91//15 90//15 101//15
f 99//11 96//11 94//11
f 92//11 99//11 101//11
f 95//15 100//15 101//15
f 93//13 98//13 99//13
f 103//12 105//12 104//12
f 109//13 108//13 111//13
f 107//14 106//14 108//14
f 103//15 102//15 113//15
f 111//11 108//11 106//11
f 104//11 111//11 113//11
f 107//15 112//15 113//15
f 105//13 110//13 111//13
f 115//20 117//20 116//20
f 121//21 120//21 123//21
f 119//22 118//22 120//22
f 115//23 114//23 125//23
f 125//11 123//11 120//11
f 116//11 123//11 125//11
f 119//23 124//23 125//23
f 117//21 122//21 123//21
usemtl Material.011
f 20//24 17//24 1//24
f 21//25 1//25 2//25
f 2//26 3//26 4//26
f 1//27 17//27 3//27
f 3//28 6//28 4//28
f 3//29 17//29 5//29
f 5//30 17//30 7//30
f 6//31 7//31 8//31
f 7//32 17//32 9//32
f 8//33 9//33 10//33
f 9//34 17//34 11//34
f 10//35 11//35 12//35
f 11//36 17//36 13//36
f 11//37 14//37 12//37
f 13//38 17//38 15//38
f 13//39 16//39 14//39
f 15//40 17//40 18//40
f 16//41 18//41 19//41
f 18//42 21//42 19//42
f 18//43 17//43 20//43
f 52//44 45//44 43//44
f 49//45 52//45 47//45
f 64//44 57//44 55//44
f 61//45 64//45 59//45
f 74//46 67//46 76//46
f 73//47 76//47 71//47
f 88//44 81//44 79//44
f 85//45 88//45 83//45
f 98//44 91//44 100//44
f 97//45 100//45 95//45
f 110//44 103//44 112//44
f 109//45 112//45 107//45
f 124//48 117//48 115//48
f 121//49 124//49 119//49
f 21//25 20//25 1//25
f 2//26 1//26 3//26
f 3//28 5//28 6//28
f 6//31 5//31 7//31
f 8//33 7//33 9//33
f 10//35 9//35 11//35
f 11//37 13//37 14//37
f 13//39 15//39 16//39
f 16//41 15//41 18//41
f 18//42 20//42 21//42
f 52//44 50//44 45//44
f 49//45 50//45 52//45
f 64//44 62//44 57//44
f 61//45 62//45 64//45
f 74//46 69//46 67//46
f 73//47 74//47 76//47
f 88//44 86//44 81//44
f 85//45 86//45 88//45
f 98//44 93//44 91//44
f 97//45 98//45 100//45
f 110//44 105//44 103//44
f 109//45 110//45 112//45
f 124//48 122//48 117//48
f 121//49 122//49 124//49
