# Blender v2.77 (sub 0) OBJ File: 'untitled.blend'
# www.blender.org
mtllib cube_mat_2.mtl
o Cube
v -0.299966 -0.211109 3.070305
v 0.256190 0.549404 2.898284
v 0.516504 -0.128718 3.152696
v 0.223490 0.547524 3.828938
v -0.535758 -0.001120 3.948468
v 0.256190 -0.383130 3.830817
v -0.535758 0.667054 3.280293
v -0.624097 0.752941 4.034355
v -0.155051 0.839614 3.517118
v 0.336342 -0.030457 3.923683
v -0.027501 -0.430104 3.488025
v 0.548717 0.171948 3.453362
v 0.418135 -0.287724 3.494127
v -0.511378 -0.203941 3.509996
v -0.609035 0.476997 4.020333
v -0.340786 0.720541 4.001954
v -0.155052 0.235704 4.121028
v 0.336342 0.642269 3.250957
v -0.721193 0.298189 3.579602
v 0.418135 0.212713 2.993690
v 0.182217 -0.229667 3.051747
v -0.104296 -0.265202 3.940581
v -0.104295 0.659167 3.016212
v -0.027501 0.206611 2.851309
v -0.609035 0.738919 3.758410
v -0.511378 0.228582 3.077473
v -0.375985 0.794449 3.364357
v 0.303430 -0.266857 3.884226
v 0.153352 -0.426447 3.711207
v 0.412581 0.409084 3.770302
v 0.328951 -0.356242 3.710933
v -0.546671 -0.120050 3.767159
v -0.620986 0.677893 4.031562
v -0.547946 0.746365 4.027779
v -0.375986 0.082943 4.075862
v 0.315562 0.628403 3.545094
v -0.665753 0.509462 3.390631
v 0.488106 -0.005417 3.081429
v 0.405433 -0.181730 3.099684
v 0.128405 -0.350179 3.887225
v -0.354321 0.680680 3.140429
v 0.153352 0.429793 2.854966
v -0.620986 0.750149 3.959307
v -0.546671 0.485745 3.161364
v 0.059677 0.754784 3.688073
v 0.288771 0.294500 4.020442
v -0.201060 -0.350508 3.246089
v 0.556161 -0.021659 3.259755
v 0.488106 -0.199985 3.275997
v -0.422577 -0.232289 3.252419
v -0.581830 0.216889 3.993834
v -0.059150 0.659887 3.941300
v 0.059677 0.406659 4.036198
v 0.303430 0.602812 3.014557
v -0.665753 0.109218 3.790876
v 0.328951 0.429519 2.925172
v -0.083696 -0.240843 3.040571
v -0.354322 -0.140984 3.962093
v 0.128406 0.605811 2.931235
v -0.201059 -0.035325 2.930905
v -0.581829 0.712420 3.498302
v -0.422577 -0.028995 3.049125
v -0.288631 -0.361790 3.498467
v -0.082274 -0.396458 3.735311
v -0.336662 -0.290353 3.755921
v 0.313064 -0.317368 3.256721
v 0.222957 -0.405371 3.485724
v 0.063467 -0.371317 3.242466
v 0.480118 0.437389 3.369831
v 0.529934 0.210689 3.195091
v 0.439392 0.446209 3.106734
v -0.228800 0.809408 3.795332
v -0.419199 0.823987 3.634851
v -0.477343 0.801445 3.880937
v -0.699465 0.554846 3.655723
v -0.699465 0.374310 3.836260
v -0.678272 0.611632 3.893046
v -0.419199 0.353437 4.105401
v -0.228800 0.513918 4.090822
v -0.477343 0.599523 4.082859
v -0.082274 0.453897 2.884956
v -0.288630 0.217053 2.919624
v -0.336661 0.474507 2.991060
v 0.439391 -0.174680 3.727623
v 0.529934 -0.086323 3.492103
v 0.453327 0.119237 3.829427
v 0.133247 0.724328 3.119844
v -0.118649 0.791966 3.237702
v 0.119972 0.777615 3.391326
v -0.577221 -0.016449 3.264965
v -0.659992 0.027776 3.532185
v -0.659992 0.250771 3.309189
v 0.133246 -0.161570 4.005742
v 0.119972 0.109912 4.059029
v -0.118650 -0.043712 4.073380
v 0.313064 -0.024693 2.964046
v 0.063467 -0.038947 2.910097
v 0.222957 0.204310 2.876043
vn -0.3153 -0.4744 -0.8219
vn -0.2632 -0.3421 -0.9021
vn -0.0701 -0.5422 -0.8373
vn 0.4249 0.5564 0.7140
vn 0.3187 0.3548 0.8789
vn 0.3043 0.1914 0.9331
vn -0.8267 -0.3749 0.4194
vn -0.9143 -0.3048 0.2667
vn -0.8500 -0.4944 0.1819
vn -0.4577 0.8124 -0.3613
vn -0.2942 0.9130 -0.2826
vn -0.2659 0.8391 -0.4745
vn 0.9674 -0.1792 -0.1792
vn 0.9874 -0.1117 -0.1117
vn 0.9170 -0.3976 0.0327
vn -0.4978 -0.2422 -0.8328
vn 0.3674 0.4886 0.7914
vn -0.8524 -0.2038 0.4816
vn -0.4799 0.8561 -0.1918
vn 0.9170 0.0326 -0.3976
vn 0.9853 0.1235 0.1176
vn 0.9039 0.4266 0.0321
vn 0.8086 0.4432 0.3869
vn 0.9531 0.1561 -0.2591
vn 0.8593 0.1362 -0.4931
vn 0.8053 0.2996 -0.5116
vn 0.8714 0.3666 -0.3260
vn 0.0845 0.9964 -0.0070
vn 0.1685 0.9377 0.3038
vn 0.4141 0.8553 0.3116
vn -0.2470 0.9681 -0.0425
vn -0.4242 0.9027 -0.0713
vn -0.1837 0.9803 0.0727
vn -0.1162 0.9741 0.1937
vn -0.9966 -0.0583 -0.0583
vn -0.9577 0.2805 -0.0649
vn -0.9143 0.2667 -0.3048
vn -0.9577 -0.0649 0.2805
vn -0.8850 -0.0801 0.4587
vn -0.9676 0.0663 0.2436
vn -0.9654 0.1843 0.1843
vn 0.0845 -0.0070 0.9964
vn -0.2470 -0.0425 0.9681
vn -0.2942 -0.2826 0.9130
vn 0.1685 0.3038 0.9377
vn 0.1890 0.4593 0.8680
vn -0.0006 0.2425 0.9701
vn -0.1162 0.1937 0.9741
vn -0.0896 -0.0773 -0.9930
vn -0.2233 0.3010 -0.9271
vn 0.1011 0.1541 -0.9829
vn -0.4250 -0.0089 -0.9051
vn -0.5921 0.0454 -0.8046
vn -0.5835 0.3556 -0.7301
vn -0.4657 0.3316 -0.8205
vn 0.8593 -0.4931 0.1362
vn 0.8674 -0.3454 0.3584
vn 0.8053 -0.5116 0.2996
vn 0.9534 -0.2594 0.1542
vn 0.8775 -0.0083 0.4796
vn -0.0679 0.8506 -0.5214
vn 0.2389 0.9041 -0.3544
vn 0.1601 0.8394 -0.5195
vn -0.0228 0.9405 -0.3390
vn 0.3673 0.9300 -0.0133
vn -0.8325 -0.5453 -0.0977
vn -0.8458 -0.3772 -0.3772
vn -0.7507 -0.5322 -0.3914
vn -0.9240 -0.3767 -0.0657
vn -0.9240 -0.0657 -0.3767
vn 0.4534 -0.1852 0.8719
vn 0.2389 -0.3544 0.9041
vn 0.3434 -0.4009 0.8493
vn 0.2779 -0.0868 0.9567
vn -0.0228 -0.3390 0.9405
vn 0.1795 -0.5347 -0.8257
vn 0.3902 -0.3269 -0.8607
vn 0.4470 -0.4131 -0.7934
vn 0.0673 -0.3900 -0.9184
vn 0.3047 -0.1187 -0.9450
vn 0.4183 -0.0023 -0.9083
vn 0.5298 -0.1057 -0.8415
vn 0.1569 0.2143 -0.9641
vn 0.5522 -0.2633 -0.7910
vn 0.5301 -0.3295 -0.7813
vn -0.2659 -0.4745 0.8391
vn -0.0679 -0.5214 0.8506
vn -0.4577 -0.3613 0.8124
vn 0.1601 -0.5195 0.8394
vn 0.2454 -0.4852 0.8393
vn -0.8500 0.1819 -0.4944
vn -0.8325 -0.0977 -0.5453
vn -0.8267 0.4195 -0.3749
vn -0.7507 -0.3914 -0.5322
vn -0.6803 -0.5183 -0.5183
vn 0.5552 0.8042 0.2122
vn 0.5035 0.8590 -0.0927
vn 0.5328 0.7216 0.4421
vn 0.3434 0.8493 -0.4009
vn 0.2454 0.8393 -0.4852
vn 0.7538 0.2589 0.6039
vn 0.7613 -0.1888 0.6203
vn 0.6112 0.6345 0.4730
vn 0.7994 -0.3904 0.4568
vn 0.7895 -0.4903 0.3692
vn -0.4739 0.4963 -0.7274
vn -0.2720 0.5131 -0.8141
vn -0.5584 0.4782 -0.6778
vn -0.1098 0.4311 -0.8956
vn -0.1837 0.0727 0.9803
vn -0.4242 -0.0713 0.9027
vn 0.0831 -0.0336 0.9960
vn -0.4799 -0.1918 0.8561
vn -0.9676 0.2436 0.0663
vn -0.8850 0.4587 -0.0801
vn -0.9984 -0.0399 -0.0399
vn -0.8524 0.4816 -0.2038
vn -0.0006 0.9701 0.2425
vn 0.1890 0.8680 0.4592
vn 0.0831 0.9960 -0.0336
vn 0.3674 0.7914 0.4886
vn 0.7994 0.4568 -0.3904
vn 0.8168 0.5727 -0.0690
vn 0.7895 0.3692 -0.4903
vn 0.7707 0.6034 0.2049
vn 0.1569 -0.9641 0.2143
vn 0.1011 -0.9829 0.1541
vn 0.4183 -0.9083 -0.0023
vn -0.1098 -0.8956 0.4311
vn -0.0896 -0.9930 -0.0773
vn -0.4250 -0.9051 -0.0089
vn -0.2632 -0.9021 -0.3421
vn -0.2233 -0.9271 0.3010
vn -0.2720 -0.8141 0.5131
vn -0.4739 -0.7274 0.4963
vn -0.4657 -0.8205 0.3316
vn 0.5298 -0.8415 -0.1057
vn 0.3902 -0.8607 -0.3269
vn 0.5522 -0.7910 -0.2633
vn 0.3047 -0.9450 -0.1187
vn 0.0673 -0.9184 -0.3900
vn -0.0701 -0.8373 -0.5422
vn 0.1795 -0.8257 -0.5347
vn -0.3153 -0.8219 -0.4744
vn 0.4470 -0.7934 -0.4131
vn 0.5301 -0.7813 -0.3295
vn -0.5835 -0.7301 0.3556
vn -0.5921 -0.8046 0.0454
vn -0.5584 -0.6778 0.4782
vn -0.4978 -0.8328 -0.2422
usemtl Material.003
s 1
f 1//1 60//2 57//3
f 4//4 53//5 46//6
f 5//7 55//8 32//9
f 7//10 27//11 41//12
f 3//13 48//14 49//15
f 1//1 62//16 60//2
f 4//4 52//17 53//5
f 5//7 51//18 55//8
f 7//10 61//19 27//11
f 3//13 38//20 48//14
f 12//21 69//22 30//23
f 12//21 70//24 69//22
f 20//25 56//26 71//27
f 9//28 72//29 45//30
f 9//28 73//31 72//29
f 25//32 43//33 74//34
f 19//35 75//36 37//37
f 19//35 76//38 75//36
f 15//39 33//40 77//41
f 17//42 78//43 35//44
f 17//42 79//45 78//43
f 16//46 34//47 80//48
f 24//49 81//50 42//51
f 24//49 82//52 81//50
f 26//53 44//54 83//55
f 13//56 84//57 31//58
f 13//56 85//59 84//57
f 12//21 30//23 86//60
f 23//61 87//62 59//63
f 23//61 88//64 87//62
f 9//28 45//30 89//65
f 14//66 90//67 50//68
f 14//66 91//69 90//67
f 19//35 37//37 92//70
f 10//71 93//72 28//73
f 10//71 94//74 93//72
f 17//42 35//44 95//75
f 21//76 96//77 39//78
f 21//76 97//79 96//77
f 24//49 42//51 98//80
f 98//80 56//81 20//82
f 98//80 42//51 56//81
f 42//51 2//83 56//81
f 96//77 98//80 20//82
f 96//77 97//79 98//80
f 97//79 24//49 98//80
f 39//78 38//84 3//85
f 39//78 96//77 38//84
f 96//77 20//82 38//84
f 95//75 58//86 22//87
f 95//75 35//44 58//86
f 35//44 5//88 58//86
f 93//72 95//75 22//87
f 93//72 94//74 95//75
f 94//74 17//42 95//75
f 28//73 40//89 6//90
f 28//73 93//72 40//89
f 93//72 22//87 40//89
f 92//70 44//91 26//92
f 92//70 37//37 44//91
f 37//37 7//93 44//91
f 90//67 92//70 26//92
f 90//67 91//69 92//70
f 91//69 19//35 92//70
f 50//68 62//94 1//95
f 50//68 90//67 62//94
f 90//67 26//92 62//94
f 89//65 36//96 18//97
f 89//65 45//30 36//96
f 45//30 4//98 36//96
f 87//62 89//65 18//97
f 87//62 88//64 89//65
f 88//64 9//28 89//65
f 59//63 54//99 2//100
f 59//63 87//62 54//99
f 87//62 18//97 54//99
f 86//60 46//101 10//102
f 30//23 4//103 46//101
f 84//57 86//60 10//102
f 84//57 85//59 86//60
f 85//59 12//21 86//60
f 31//58 28//104 6//105
f 31//58 84//57 28//104
f 84//57 10//102 28//104
f 83//55 41//106 23//107
f 83//55 44//54 41//106
f 44//54 7//108 41//106
f 81//50 83//55 23//107
f 81//50 82//52 83//55
f 82//52 26//53 83//55
f 42//51 59//109 2//83
f 42//51 81//50 59//109
f 81//50 23//107 59//109
f 80//48 33//110 15//111
f 80//48 34//47 33//110
f 34//47 8//112 33//110
f 78//43 80//48 15//111
f 78//43 79//45 80//48
f 79//45 16//46 80//48
f 35//44 51//113 5//88
f 35//44 78//43 51//113
f 78//43 15//111 51//113
f 77//41 43//114 25//115
f 77//41 33//40 43//114
f 33//40 8//116 43//114
f 75//36 77//41 25//115
f 75//36 76//38 77//41
f 76//38 15//39 77//41
f 37//37 61//117 7//93
f 37//37 75//36 61//117
f 75//36 25//115 61//117
f 74//34 34//118 16//119
f 74//34 43//33 34//118
f 43//33 8//120 34//118
f 72//29 74//34 16//119
f 72//29 73//31 74//34
f 73//31 25//32 74//34
f 45//30 52//121 4//98
f 45//30 72//29 52//121
f 72//29 16//119 52//121
f 71//27 54//122 18//123
f 71//27 56//26 54//122
f 56//26 2//124 54//122
f 69//22 71//27 18//123
f 69//22 70//24 71//27
f 70//24 20//25 71//27
f 30//23 36//125 4//103
f 30//23 69//22 36//125
f 69//22 18//123 36//125
f 48//14 70//24 12//21
f 48//14 38//20 70//24
f 38//20 20//25 70//24
f 27//11 73//31 9//28
f 27//11 61//19 73//31
f 61//19 25//32 73//31
f 55//8 76//38 19//35
f 55//8 51//18 76//38
f 51//18 15//39 76//38
f 53//5 79//45 17//42
f 53//5 52//17 79//45
f 52//17 16//46 79//45
f 60//2 82//52 24//49
f 60//2 62//16 82//52
f 62//16 26//53 82//52
f 49//15 85//59 13//56
f 49//15 48//14 85//59
f 48//14 12//21 85//59
f 41//12 88//64 23//61
f 41//12 27//11 88//64
f 27//11 9//28 88//64
f 32//9 91//69 14//66
f 32//9 55//8 91//69
f 55//8 19//35 91//69
f 46//6 94//74 10//71
f 46//6 53//5 94//74
f 53//5 17//42 94//74
f 57//3 97//79 21//76
f 57//3 60//2 97//79
f 60//2 24//49 97//79
usemtl Material.004
f 6//126 29//127 31//128
f 6//126 40//129 29//127
f 11//130 63//131 47//132
f 11//130 64//133 63//131
f 22//134 58//135 65//136
f 13//137 66//138 49//139
f 13//137 67//140 66//138
f 11//130 47//132 68//141
f 86//60 30//23 46//101
f 68//141 57//142 21//143
f 68//141 47//132 57//142
f 47//132 1//144 57//142
f 66//138 68//141 21//143
f 66//138 67//140 68//141
f 67//140 11//130 68//141
f 49//139 39//145 3//146
f 49//139 66//138 39//145
f 66//138 21//143 39//145
f 65//136 32//147 14//148
f 65//136 58//135 32//147
f 58//135 5//149 32//147
f 63//131 65//136 14//148
f 63//131 64//133 65//136
f 64//133 22//134 65//136
f 47//132 50//150 1//144
f 47//132 63//131 50//150
f 63//131 14//148 50//150
f 29//127 64//133 11//130
f 29//127 40//129 64//133
f 40//129 22//134 64//133
f 31//128 67//140 13//137
f 31//128 29//127 67//140
f 29//127 11//130 67//140
