# Blender v2.77 (sub 0) OBJ File: 'untitled.blend'
# www.blender.org
mtllib forest.mtl
o Tree.004_Cube.004
v 0.742502 0.536006 0.597772
v 0.580922 0.145917 0.597772
v 0.190833 -0.015663 0.597772
v -0.199256 0.145917 0.597772
v -0.360837 0.536006 0.597772
v 0.190833 0.536006 1.701111
v -0.199256 0.926095 0.597772
v 0.190833 1.087675 0.597772
v 0.580922 0.926095 0.597772
v 0.347006 0.419691 0.035418
v 0.078782 0.419691 0.035418
v 0.078782 0.667810 0.035418
v 0.347006 0.667810 0.035418
v 0.347005 0.419690 0.618353
v 0.078781 0.419691 0.618353
v 0.078782 0.667810 0.618353
v 0.347006 0.667810 0.618353
v -0.215153 0.448007 0.563662
v -0.366986 0.081449 0.563662
v -0.733543 -0.070384 0.563662
v -1.100101 0.081449 0.563662
v -1.251934 0.448007 0.563662
v -0.733543 0.448007 1.600443
v -1.100101 0.814564 0.563662
v -0.733543 0.966397 0.563662
v -0.366986 0.814564 0.563662
v -0.586791 0.338708 0.035231
v -0.838835 0.338708 0.035231
v -0.838835 0.571860 0.035231
v -0.586791 0.571860 0.035231
v -0.586791 0.338708 0.583002
v -0.838835 0.338708 0.583002
v -0.838835 0.571860 0.583002
v -0.586791 0.571860 0.583002
v 0.275063 -0.416769 0.552775
v 0.123230 -0.783327 0.552775
v -0.243328 -0.935160 0.552775
v -0.609885 -0.783327 0.552775
v -0.761719 -0.416769 0.552775
v -0.243328 -0.416769 1.589557
v -0.609885 -0.050212 0.552775
v -0.243328 0.101622 0.552775
v 0.123229 -0.050212 0.552775
v -0.096576 -0.526068 0.024344
v -0.348620 -0.526068 0.024344
v -0.348620 -0.292916 0.024344
v -0.096576 -0.292916 0.024344
v -0.096576 -0.526068 0.572115
v -0.348620 -0.526067 0.572115
v -0.348620 -0.292916 0.572115
v -0.096576 -0.292916 0.572115
v 1.230455 -0.378145 0.580380
v 1.068875 -0.768234 0.580380
v 0.678786 -0.929814 0.580380
v 0.288697 -0.768234 0.580380
v 0.127117 -0.378145 0.580380
v 0.678786 -0.378145 1.683718
v 0.288697 0.011944 0.580380
v 0.678786 0.173525 0.580380
v 1.068875 0.011944 0.580380
v 0.834959 -0.494460 0.018025
v 0.566735 -0.494460 0.018025
v 0.566735 -0.246341 0.018025
v 0.834959 -0.246341 0.018025
v 0.834959 -0.494460 0.600961
v 0.566734 -0.494460 0.600961
v 0.566735 -0.246341 0.600961
v 0.834959 -0.246341 0.600961
vn 0.0000 0.0000 -1.0000
vn 0.0000 0.0000 1.0000
vn 0.0000 -1.0000 -0.0000
vn -1.0000 0.0000 -0.0000
vn 0.0000 1.0000 -0.0000
vn 1.0000 -0.0000 0.0000
vn 0.8387 -0.3474 0.4194
vn 0.3474 -0.8387 0.4194
vn -0.3474 -0.8387 0.4194
vn -0.8387 -0.3474 0.4194
vn -0.8387 0.3474 0.4194
vn -0.3474 0.8387 0.4194
vn 0.3474 0.8387 0.4194
vn 0.8387 0.3474 0.4194
usemtl Material.001
s off
f 11//1 13//1 10//1
f 14//2 16//2 15//2
f 14//3 11//3 10//3
f 15//4 12//4 11//4
f 12//5 17//5 13//5
f 10//6 17//6 14//6
f 27//1 29//1 30//1
f 31//2 33//2 32//2
f 31//3 28//3 27//3
f 32//4 29//4 28//4
f 29//5 34//5 30//5
f 27//6 34//6 31//6
f 45//1 47//1 44//1
f 48//2 50//2 49//2
f 48//3 45//3 44//3
f 49//4 46//4 45//4
f 50//5 47//5 46//5
f 44//6 51//6 48//6
f 61//1 63//1 64//1
f 65//2 67//2 66//2
f 65//3 62//3 61//3
f 66//4 63//4 62//4
f 67//5 64//5 63//5
f 61//6 68//6 65//6
f 11//1 12//1 13//1
f 14//2 17//2 16//2
f 14//3 15//3 11//3
f 15//4 16//4 12//4
f 12//5 16//5 17//5
f 10//6 13//6 17//6
f 27//1 28//1 29//1
f 31//2 34//2 33//2
f 31//3 32//3 28//3
f 32//4 33//4 29//4
f 29//5 33//5 34//5
f 27//6 30//6 34//6
f 45//1 46//1 47//1
f 48//2 51//2 50//2
f 48//3 49//3 45//3
f 49//4 50//4 46//4
f 50//5 51//5 47//5
f 44//6 47//6 51//6
f 61//1 62//1 63//1
f 65//2 68//2 67//2
f 65//3 66//3 62//3
f 66//4 67//4 63//4
f 67//5 68//5 64//5
f 61//6 64//6 68//6
usemtl Material.002
f 1//7 6//7 2//7
f 2//8 6//8 3//8
f 3//9 6//9 4//9
f 4//10 6//10 5//10
f 5//11 6//11 7//11
f 7//12 6//12 8//12
f 8//13 6//13 9//13
f 9//14 6//14 1//14
f 5//1 7//1 9//1
f 35//7 40//7 36//7
f 36//8 40//8 37//8
f 37//9 40//9 38//9
f 38//10 40//10 39//10
f 39//11 40//11 41//11
f 41//12 40//12 42//12
f 42//13 40//13 43//13
f 43//14 40//14 35//14
f 38//1 41//1 43//1
f 9//1 1//1 4//1
f 2//1 3//1 4//1
f 4//1 5//1 9//1
f 7//1 8//1 9//1
f 1//1 2//1 4//1
f 43//1 35//1 36//1
f 36//1 37//1 38//1
f 38//1 39//1 41//1
f 41//1 42//1 43//1
f 43//1 36//1 38//1
usemtl Material.000
f 18//7 23//7 19//7
f 19//8 23//8 20//8
f 20//9 23//9 21//9
f 21//10 23//10 22//10
f 22//11 23//11 24//11
f 24//12 23//12 25//12
f 25//13 23//13 26//13
f 26//14 23//14 18//14
f 21//1 25//1 26//1
f 52//7 57//7 53//7
f 53//8 57//8 54//8
f 54//9 57//9 55//9
f 55//10 57//10 56//10
f 56//11 57//11 58//11
f 58//12 57//12 59//12
f 59//13 57//13 60//13
f 60//14 57//14 52//14
f 55//1 58//1 60//1
f 26//1 18//1 19//1
f 19//1 20//1 21//1
f 21//1 22//1 24//1
f 24//1 25//1 21//1
f 26//1 19//1 21//1
f 60//1 52//1 53//1
f 53//1 54//1 55//1
f 55//1 56//1 58//1
f 58//1 59//1 60//1
f 60//1 53//1 55//1
