# Blender v2.77 (sub 0) OBJ File: ''
# www.blender.org
mtllib marker.mtl
o Icosphere
v 0.000000 0.000000 0.226574
v -0.223941 -0.308232 1.108781
v -0.362348 0.117732 1.108781
v 0.000000 0.380995 1.108783
v 0.362348 0.117732 1.108781
v 0.223941 -0.308232 1.108781
v -0.407957 -0.132551 1.689546
v -0.252129 0.347030 1.689546
v 0.252129 0.347030 1.689546
v 0.407957 -0.132551 1.689546
v 0.000000 -0.428952 1.689544
v 0.000000 0.000000 1.954651
v -0.239789 0.077911 0.721427
v -0.148197 -0.203978 0.721427
v -0.344612 -0.111973 1.075335
v 0.000000 -0.362347 1.075336
v 0.148197 -0.203978 0.721427
v 0.000000 0.252131 0.721429
v -0.212982 0.293145 1.075336
v 0.239789 0.077911 0.721427
v 0.212982 0.293145 1.075336
v 0.344612 -0.111973 1.075335
v -0.152011 -0.467849 1.415428
v 0.152011 -0.467849 1.415428
v -0.491925 0.000000 1.415428
v -0.397976 -0.289146 1.415428
v -0.152011 0.467849 1.415428
v -0.397976 0.289146 1.415428
v 0.397976 0.289146 1.415428
v 0.152011 0.467849 1.415428
v 0.397976 -0.289146 1.415428
v 0.491925 0.000000 1.415428
v -0.239790 -0.330044 1.727202
v -0.387989 0.126068 1.727202
v 0.000000 0.407957 1.727201
v 0.387989 0.126068 1.727202
v 0.239790 -0.330044 1.727202
v -0.239789 -0.077911 1.883027
v 0.000000 -0.252131 1.883026
v -0.148197 0.203978 1.883027
v 0.148197 0.203978 1.883027
v 0.239789 -0.077911 1.883027
vn -0.8793 -0.2857 -0.3811
vn -0.2661 -0.9165 -0.2987
vn -0.5434 0.7480 -0.3811
vn 0.5434 0.7480 -0.3811
vn 0.8793 -0.2857 -0.3811
vn -0.2711 -0.8784 -0.3936
vn -0.9192 -0.0137 -0.3936
vn -0.2970 0.8700 -0.3936
vn 0.7356 0.5513 -0.3936
vn 0.7516 -0.5292 -0.3936
vn -0.5655 -0.7784 -0.2725
vn -0.9151 0.2973 -0.2725
vn 0.0000 0.9622 -0.2725
vn 0.9151 0.2973 -0.2725
vn 0.5655 -0.7784 -0.2725
vn -0.6284 -0.4089 0.6617
vn -0.5831 0.4713 0.6617
vn 0.2680 0.7002 0.6617
vn 0.7488 -0.0385 0.6617
vn 0.1947 -0.7240 0.6617
vn 0.1947 -0.2680 0.9435
vn 0.3568 -0.4911 0.7947
vn 0.6284 -0.4089 0.6617
vn 0.3151 0.1024 0.9435
vn 0.5773 0.1876 0.7947
vn 0.5831 0.4713 0.6617
vn 0.0000 0.3313 0.9435
vn 0.0000 0.6071 0.7947
vn -0.2680 0.7002 0.6617
vn -0.3151 0.1024 0.9435
vn -0.5773 0.1876 0.7947
vn -0.7488 -0.0385 0.6617
vn -0.1947 -0.2680 0.9435
vn -0.3568 -0.4911 0.7947
vn -0.1947 -0.7240 0.6617
vn 0.3217 -0.8962 0.3056
vn 0.5772 -0.7945 0.1887
vn 0.7529 -0.5829 0.3056
vn 0.9517 0.0290 0.3056
vn 0.9340 0.3035 0.1887
vn 0.7870 0.5360 0.3056
vn 0.2665 0.9141 0.3056
vn 0.0000 0.9820 0.1887
vn -0.2665 0.9141 0.3056
vn -0.7870 0.5360 0.3056
vn -0.9340 0.3035 0.1887
vn -0.9517 0.0290 0.3056
vn -0.7529 -0.5829 0.3056
vn -0.5772 -0.7945 0.1887
vn -0.3217 -0.8962 0.3056
vn 0.9416 -0.3060 0.1405
vn 0.9084 -0.2951 -0.2963
vn 0.9192 -0.0137 -0.3936
vn 0.5820 0.8010 0.1405
vn 0.5614 0.7727 -0.2963
vn 0.2970 0.8700 -0.3936
vn -0.5820 0.8010 0.1405
vn -0.5614 0.7727 -0.2963
vn -0.7356 0.5513 -0.3936
vn -0.9416 -0.3060 0.1405
vn -0.9084 -0.2951 -0.2963
vn -0.7516 -0.5292 -0.3936
vn 0.0000 -0.9901 0.1405
vn 0.0000 -0.9551 -0.2963
vn 0.2711 -0.8784 -0.3936
vn 0.7894 -0.5363 -0.2987
vn 0.8681 -0.2821 -0.4085
vn 0.9539 -0.0302 -0.2987
vn 0.7540 0.5851 -0.2987
vn 0.5365 0.7384 -0.4085
vn 0.3234 0.8979 -0.2987
vn -0.3234 0.8979 -0.2987
vn -0.5365 0.7384 -0.4085
vn -0.7540 0.5851 -0.2987
vn 0.2661 -0.9165 -0.2987
vn 0.0000 -0.9128 -0.4085
vn 0.0000 -0.9245 -0.3811
vn -0.9539 -0.0302 -0.2987
vn -0.8681 -0.2821 -0.4085
vn -0.7894 -0.5363 -0.2987
usemtl Red
s off
f 1//1 14//1 13//1
f 2//2 14//2 16//2
f 1//3 13//3 18//3
f 1//4 18//4 20//4
f 1//5 20//5 17//5
f 2//6 16//6 23//6
f 3//7 15//7 25//7
f 4//8 19//8 27//8
f 5//9 21//9 29//9
f 6//10 22//10 31//10
f 2//11 23//11 26//11
f 3//12 25//12 28//12
f 4//13 27//13 30//13
f 5//14 29//14 32//14
f 6//15 31//15 24//15
f 7//16 33//16 38//16
f 8//17 34//17 40//17
f 9//18 35//18 41//18
f 10//19 36//19 42//19
f 11//20 37//20 39//20
f 39//21 42//21 12//21
f 39//22 37//22 42//22
f 37//23 10//23 42//23
f 42//24 41//24 12//24
f 42//25 36//25 41//25
f 36//26 9//26 41//26
f 41//27 40//27 12//27
f 41//28 35//28 40//28
f 35//29 8//29 40//29
f 40//30 38//30 12//30
f 40//31 34//31 38//31
f 34//32 7//32 38//32
f 38//33 39//33 12//33
f 38//34 33//34 39//34
f 33//35 11//35 39//35
f 24//36 37//36 11//36
f 24//37 31//37 37//37
f 31//38 10//38 37//38
f 32//39 36//39 10//39
f 32//40 29//40 36//40
f 29//41 9//41 36//41
f 30//42 35//42 9//42
f 30//43 27//43 35//43
f 27//44 8//44 35//44
f 28//45 34//45 8//45
f 28//46 25//46 34//46
f 25//47 7//47 34//47
f 26//48 33//48 7//48
f 26//49 23//49 33//49
f 23//50 11//50 33//50
f 31//51 32//51 10//51
f 31//52 22//52 32//52
f 22//53 5//53 32//53
f 29//54 30//54 9//54
f 29//55 21//55 30//55
f 21//56 4//56 30//56
f 27//57 28//57 8//57
f 27//58 19//58 28//58
f 19//59 3//59 28//59
f 25//60 26//60 7//60
f 25//61 15//61 26//61
f 15//62 2//62 26//62
f 23//63 24//63 11//63
f 23//64 16//64 24//64
f 16//65 6//65 24//65
f 17//66 22//66 6//66
f 17//67 20//67 22//67
f 20//68 5//68 22//68
f 20//69 21//69 5//69
f 20//70 18//70 21//70
f 18//71 4//71 21//71
f 18//72 19//72 4//72
f 18//73 13//73 19//73
f 13//74 3//74 19//74
f 16//75 17//75 6//75
f 16//76 14//76 17//76
f 14//77 1//77 17//77
f 13//78 15//78 3//78
f 13//79 14//79 15//79
f 14//80 2//80 15//80
