# Blender v2.77 (sub 0) OBJ File: 'untitled.blend'
# www.blender.org
mtllib player_v1.mtl
o model_player_v1_Cube.001
v -0.071044 0.133881 -0.036286
v -0.071044 0.133881 0.696932
v 0.204861 0.133881 -0.036286
v 0.204861 0.133881 0.696932
v -0.071044 -0.150067 -0.036286
v -0.071044 -0.150067 0.696932
v 0.204861 -0.150067 -0.036286
v 0.204861 -0.150067 0.696932
v 0.454149 -0.027202 0.652925
v 0.049751 -0.027202 0.887279
v 0.174717 -0.411808 0.652925
v -0.277414 -0.264901 0.652925
v -0.277414 0.210497 0.652925
v 0.174717 0.357403 0.652925
v 0.029373 -0.150067 0.696932
v 0.204861 -0.008093 -0.036286
v 0.204861 -0.150067 0.512679
v 0.204861 -0.008093 0.754604
v 0.029373 0.133881 -0.036286
v 0.204861 0.133881 0.512679
v 0.029373 0.133881 0.696932
v -0.071044 0.133881 0.512679
v -0.071044 -0.150067 0.512679
v 0.029373 -0.150067 -0.036286
v -0.071044 -0.008093 0.696932
v -0.071044 -0.008093 -0.036286
v 0.029373 -0.008093 -0.036286
v -0.071044 -0.008093 0.512679
v 0.029373 -0.150067 0.512679
v 0.204861 -0.008093 0.512679
v 0.029373 0.133881 0.512679
v 0.204861 -0.008093 0.696932
v 0.204861 -0.150067 0.696932
v 0.204861 -0.150067 0.512679
v 0.204861 0.133881 0.696932
v 0.204861 0.133881 0.512679
v 0.204861 -0.008093 0.512679
v 0.204861 -0.150067 0.512679
v 0.204861 0.133881 0.512679
v 0.204861 -0.008093 0.512679
v 0.081542 0.140445 0.495970
v 0.081542 0.232045 0.495970
v 0.007977 0.140445 0.475976
v 0.209765 0.241205 0.053272
v 0.209765 0.131285 0.053272
v 0.007977 0.232045 0.475976
v 0.121488 0.131285 0.029279
v 0.121488 0.241205 0.029279
v 0.165626 0.131285 0.041276
v 0.165626 0.241205 0.041276
v 0.209765 0.186245 0.053272
v 0.121488 0.186245 0.029279
v 0.185919 0.241205 0.141008
v 0.185919 0.131285 0.141008
v 0.080634 0.186245 0.506577
v 0.042013 0.234335 0.496080
v 0.097641 0.131285 0.117015
v 0.003391 0.186245 0.485583
v 0.097641 0.241205 0.117015
v 0.042012 0.138155 0.496080
v 0.141780 0.241205 0.129011
v 0.165626 0.186245 0.041276
v 0.141780 0.131285 0.129011
v 0.097641 0.186245 0.117015
v 0.185919 0.186245 0.141008
v 0.033772 0.186245 0.526400
v 0.078179 -0.236519 0.503781
v 0.078179 -0.144919 0.503781
v 0.004089 -0.236519 0.485831
v 0.194096 -0.135759 0.057703
v 0.194096 -0.245679 0.057703
v 0.004089 -0.144919 0.485831
v 0.105188 -0.245679 0.036163
v 0.105188 -0.135759 0.036163
v 0.149642 -0.245679 0.046933
v 0.149642 -0.135759 0.046933
v 0.194096 -0.190719 0.057703
v 0.105188 -0.190719 0.036163
v 0.172688 -0.135759 0.146065
v 0.172688 -0.245679 0.146065
v 0.077565 -0.190719 0.514409
v 0.038668 -0.142629 0.504985
v 0.083780 -0.245679 0.124525
v -0.000229 -0.190719 0.495561
v 0.083780 -0.135759 0.124525
v 0.038668 -0.238809 0.504985
v 0.128234 -0.135759 0.135295
v 0.149642 -0.190719 0.046933
v 0.128234 -0.245679 0.135295
v 0.083780 -0.190719 0.124525
v 0.172688 -0.190719 0.146065
v 0.031270 -0.190719 0.535522
v 0.204861 0.133881 0.193836
v 0.204861 -0.150067 0.193836
v -0.071044 -0.150067 0.193836
v -0.071044 0.133881 0.193836
v -0.071044 -0.008093 0.193836
v 0.029373 -0.150067 0.193836
v 0.204861 -0.008093 0.193836
v 0.029373 0.133881 0.193836
v 0.204861 0.133881 0.029463
v 0.204861 -0.150067 0.029463
v -0.071044 -0.150067 0.029463
v -0.071044 -0.008093 0.029463
v 0.029373 -0.150067 0.029463
v 0.204861 -0.008093 0.029463
v 0.029373 0.133881 0.029463
v -0.071044 0.133881 0.029463
vn 0.0000 0.0000 1.0000
vn 1.0000 0.0000 0.0000
vn 0.3465 0.4571 0.8191
vn -0.0000 -1.0000 0.0000
vn -0.0065 0.9997 0.0239
vn 0.0579 0.9977 0.0344
vn -0.0065 -0.9997 0.0239
vn -0.0673 -0.9977 0.0004
vn -0.9702 -0.0000 -0.2423
vn -0.9678 0.0450 -0.2475
vn 0.9594 0.0000 0.2821
vn 0.9600 -0.0450 0.2765
vn -0.5067 0.2253 0.8322
vn -0.5067 -0.2253 0.8322
vn 0.3465 -0.4571 0.8191
vn 0.3691 0.4571 0.8092
vn 0.0000 1.0000 0.0000
vn -0.0058 0.9997 0.0241
vn 0.0588 0.9977 0.0328
vn -0.0058 -0.9997 0.0241
vn -0.0673 -0.9977 0.0022
vn -0.9765 0.0000 -0.2154
vn -0.9743 0.0450 -0.2206
vn 0.9668 0.0000 0.2554
vn 0.9673 -0.0450 0.2498
vn -0.4835 0.2253 0.8459
vn -0.4835 -0.2253 0.8459
vn 0.3691 -0.4571 0.8092
vn -1.0000 0.0000 0.0000
vn 0.0157 0.2253 0.9742
vn -0.0673 0.9977 0.0004
vn 0.0579 -0.9977 0.0344
vn -0.9678 -0.0450 -0.2475
vn 0.9600 0.0450 0.2765
vn -0.7135 0.4571 0.5310
vn -0.7135 -0.4571 0.5310
vn 0.0157 -0.2253 0.9742
vn 0.0427 0.2253 0.9734
vn -0.0673 0.9977 0.0022
vn 0.0588 -0.9977 0.0328
vn -0.9743 -0.0450 -0.2206
vn 0.9673 0.0450 0.2498
vn -0.6985 0.4571 0.5506
vn -0.6985 -0.4571 0.5506
vn 0.0427 -0.2253 0.9734
vn 0.9650 0.0000 0.2623
vn -0.9650 -0.0000 -0.2623
vn 0.2623 -0.0000 -0.9650
vn 0.9719 0.0000 0.2355
vn -0.9719 0.0000 -0.2355
vn 0.2355 0.0000 -0.9719
vn 0.0000 0.0000 -1.0000
vn 0.4711 -0.3423 0.8130
vn -0.1799 -0.5538 0.8130
vn -0.5823 0.0000 0.8130
vn -0.1800 0.5538 0.8130
vn 0.4711 0.3423 0.8130
usemtl Shirt
s off
f 17//1 37//1 34//1
f 4//1 32//1 35//1
f 8//1 34//1 33//1
f 30//1 36//1 37//1
f 18//2 33//2 32//2
f 20//1 35//1 36//1
f 34//1 40//1 38//1
f 37//1 39//1 40//1
f 55//3 56//3 66//3
f 57//4 49//4 63//4
f 46//5 61//5 59//5
f 42//6 61//6 56//6
f 63//4 45//4 54//4
f 41//7 63//7 54//7
f 43//8 63//8 60//8
f 43//9 64//9 57//9
f 46//10 64//10 58//10
f 42//11 65//11 53//11
f 41//12 65//12 55//12
f 58//13 56//13 46//13
f 60//14 58//14 43//14
f 60//15 55//15 66//15
f 81//16 82//16 92//16
f 87//17 70//17 76//17
f 85//17 76//17 74//17
f 72//18 87//18 85//18
f 68//19 87//19 82//19
f 67//20 89//20 80//20
f 69//21 89//21 86//21
f 69//22 90//22 83//22
f 72//23 90//23 84//23
f 68//24 91//24 79//24
f 67//25 91//25 81//25
f 84//26 82//26 72//26
f 86//27 84//27 69//27
f 86//28 81//28 92//28
f 31//17 96//17 22//17
f 30//2 93//2 20//2
f 29//4 94//4 17//4
f 28//29 95//29 23//29
f 22//29 97//29 28//29
f 23//4 98//4 29//4
f 17//2 99//2 30//2
f 20//17 100//17 31//17
f 17//1 30//1 37//1
f 4//2 18//2 32//2
f 8//1 17//1 34//1
f 30//1 20//1 36//1
f 18//1 8//1 33//1
f 20//1 4//1 35//1
f 34//1 37//1 40//1
f 37//1 36//1 39//1
f 55//30 42//30 56//30
f 57//4 47//4 49//4
f 46//31 56//31 61//31
f 42//5 53//5 61//5
f 63//4 49//4 45//4
f 41//32 60//32 63//32
f 43//7 57//7 63//7
f 43//33 58//33 64//33
f 46//9 59//9 64//9
f 42//34 55//34 65//34
f 41//11 54//11 65//11
f 58//35 66//35 56//35
f 60//36 66//36 58//36
f 60//37 41//37 55//37
f 81//38 68//38 82//38
f 87//17 79//17 70//17
f 85//17 87//17 76//17
f 72//39 82//39 87//39
f 68//18 79//18 87//18
f 67//40 86//40 89//40
f 69//20 83//20 89//20
f 69//41 84//41 90//41
f 72//22 85//22 90//22
f 68//42 81//42 91//42
f 67//24 80//24 91//24
f 84//43 92//43 82//43
f 86//44 92//44 84//44
f 86//45 67//45 81//45
f 31//17 100//17 96//17
f 30//2 99//2 93//2
f 29//4 98//4 94//4
f 28//29 97//29 95//29
f 22//29 96//29 97//29
f 23//4 95//4 98//4
f 17//2 94//2 99//2
f 20//17 93//17 100//17
usemtl Skin
f 25//29 23//29 6//29
f 2//29 28//29 25//29
f 15//4 17//4 8//4
f 6//4 29//4 15//4
f 21//17 22//17 2//17
f 4//17 31//17 21//17
f 32//2 36//2 35//2
f 33//2 37//2 32//2
f 54//46 51//46 65//46
f 64//47 48//47 52//47
f 51//48 49//48 62//48
f 53//17 50//17 61//17
f 61//17 48//17 59//17
f 52//48 49//48 47//48
f 50//48 52//48 48//48
f 44//48 62//48 50//48
f 57//47 52//47 47//47
f 65//46 44//46 53//46
f 80//49 77//49 91//49
f 85//50 78//50 90//50
f 83//4 75//4 89//4
f 77//51 75//51 88//51
f 88//51 73//51 78//51
f 76//51 78//51 74//51
f 70//51 88//51 76//51
f 89//4 71//4 80//4
f 90//50 73//50 83//50
f 91//49 70//49 79//49
f 25//29 28//29 23//29
f 2//29 22//29 28//29
f 15//4 29//4 17//4
f 6//4 23//4 29//4
f 21//17 31//17 22//17
f 4//17 20//17 31//17
f 32//2 37//2 36//2
f 33//2 34//2 37//2
f 54//46 45//46 51//46
f 64//47 59//47 48//47
f 51//48 45//48 49//48
f 53//17 44//17 50//17
f 61//17 50//17 48//17
f 52//48 62//48 49//48
f 50//48 62//48 52//48
f 44//48 51//48 62//48
f 57//47 64//47 52//47
f 65//46 51//46 44//46
f 80//49 71//49 77//49
f 85//50 74//50 78//50
f 83//4 73//4 75//4
f 77//51 71//51 75//51
f 88//51 75//51 73//51
f 76//51 88//51 78//51
f 70//51 77//51 88//51
f 89//4 75//4 71//4
f 90//50 78//50 73//50
f 91//49 77//49 70//49
usemtl boot
f 101//17 19//17 107//17
f 102//2 16//2 106//2
f 103//4 24//4 105//4
f 108//29 26//29 104//29
f 16//52 24//52 27//52
f 27//52 5//52 26//52
f 104//29 5//29 103//29
f 3//52 27//52 19//52
f 19//52 26//52 1//52
f 105//4 7//4 102//4
f 106//2 3//2 101//2
f 107//17 1//17 108//17
f 101//17 3//17 19//17
f 102//2 7//2 16//2
f 103//4 5//4 24//4
f 108//29 1//29 26//29
f 16//52 7//52 24//52
f 27//52 24//52 5//52
f 104//29 26//29 5//29
f 3//52 16//52 27//52
f 19//52 27//52 26//52
f 105//4 24//4 7//4
f 106//2 16//2 3//2
f 107//17 19//17 1//17
usemtl leg
f 100//17 108//17 96//17
f 99//2 101//2 93//2
f 98//4 102//4 94//4
f 97//29 103//29 95//29
f 96//29 104//29 97//29
f 95//4 105//4 98//4
f 94//2 106//2 99//2
f 93//17 107//17 100//17
f 100//17 107//17 108//17
f 99//2 106//2 101//2
f 98//4 105//4 102//4
f 97//29 104//29 103//29
f 96//29 108//29 104//29
f 95//4 103//4 105//4
f 94//2 102//2 106//2
f 93//17 101//17 107//17
usemtl hat
f 9//53 10//53 11//53
f 11//54 10//54 12//54
f 12//55 10//55 13//55
f 13//56 10//56 14//56
f 14//57 10//57 9//57
