# Blender v2.77 (sub 0) OBJ File: ''
# www.blender.org
mtllib single_tree.mtl
o tree_1_Cube.001
v -0.141578 -1.424414 0.221382
v -0.162498 -1.283687 0.221382
v 0.145181 -1.137658 0.217621
v -0.000851 -1.122039 0.221382
v -0.117826 -1.166489 0.429502
v 0.120760 -1.162078 0.426373
v 0.116347 -1.400662 0.429502
v -0.117826 -1.400662 0.429502
v -0.117826 -1.166489 0.429502
v -0.138302 -1.149909 1.016894
v 0.137918 -1.149909 1.016894
v -0.138302 -1.426128 1.013577
v 0.137918 -1.426128 1.016894
v -0.000136 -1.288332 0.883692
v 0.467064 -0.643853 1.431182
v 0.757216 -1.536835 1.431182
v -0.002402 -2.088735 1.431186
v -0.762020 -1.536835 1.431182
v -0.471867 -0.643853 1.431182
v 0.499123 -1.162739 2.677936
v 0.317640 -1.721276 2.677936
v -0.269637 -1.721276 2.677936
v -0.451119 -1.162739 2.677936
v 0.024002 -0.817540 2.677933
v 0.029432 -1.318666 3.107924
v 0.499859 -1.450787 0.962577
v 0.308875 -0.863009 0.962578
v 0.720034 -1.055286 1.361067
v -0.002402 -0.530408 1.361068
v -0.309148 -0.863009 0.962578
v -0.002402 -1.759494 1.070923
v 0.444089 -1.904568 1.361068
v -0.448891 -1.435095 1.070921
v -0.448892 -1.904568 1.361068
v -0.724838 -1.055286 1.361067
v 0.273542 -0.440743 1.830543
v -0.278346 -0.440743 1.830543
v 0.582542 -1.317112 2.428145
v 0.720039 -0.765140 1.830543
v 0.273542 -2.139306 1.830543
v 0.475870 -1.645414 2.428145
v -0.724842 -1.814909 1.830543
v -0.148594 -1.848316 2.428145
v -0.724842 -0.765140 1.830543
v -0.895388 -1.290025 1.830543
v 0.303270 -0.932731 2.721790
v 0.475867 -1.463935 2.721791
v 0.024002 -1.792233 2.721790
v -0.427863 -1.463935 2.721791
v -0.255266 -0.932731 2.721790
v 0.342166 -1.217054 3.014512
v 0.029432 -0.989835 3.014511
v 0.222710 -1.584694 3.014512
v -0.163847 -1.584694 3.014512
v -0.283303 -1.217054 3.014512
v -0.162498 -1.283687 0.221382
v -0.141578 -1.142959 0.221382
v 0.160796 -1.283687 0.221382
v 0.145181 -1.137658 0.217621
v 0.139876 -1.424414 0.221382
v -0.000851 -1.445334 0.221382
v -0.000740 -1.418067 0.429502
v 0.133752 -1.283575 0.429502
v -0.000740 -1.149083 0.429502
v -0.135232 -1.283575 0.429502
v 0.133752 -1.283575 0.429502
v -0.000740 -1.418067 0.429502
v -0.000192 -1.120301 1.016894
v -0.167909 -1.288018 1.013577
v 0.167525 -1.288018 1.016894
v -0.000192 -1.455736 1.016894
v -0.097879 -1.406809 0.720463
v -0.097180 -1.223328 0.723370
v 0.089129 -1.223328 0.723370
v 0.089129 -1.409637 0.723370
v -0.004026 -1.425416 0.723370
v -0.004026 -1.207548 0.723370
v 0.104908 -1.316482 0.723370
v -0.135232 -1.283575 0.429502
v -0.117826 -1.400662 0.429502
v 0.116347 -1.400662 0.429502
v -0.113658 -1.313655 0.720463
v 0.120760 -1.162078 0.426373
v 0.139876 -1.424414 0.221382
v -0.000851 -1.445334 0.221382
v -0.141578 -1.142959 0.221382
v -0.141578 -1.424414 0.221382
v -0.228575 -1.056778 0.001225
v 0.226057 -1.511410 0.001225
v -0.001259 -1.545202 0.001225
v 0.234626 -1.048216 -0.004850
v -0.228575 -1.056778 0.001225
v -0.001259 -1.022986 0.001225
v 0.234626 -1.048216 -0.004850
v -0.262367 -1.284094 0.001225
v 0.259849 -1.284094 0.001225
v 0.226057 -1.511410 0.001225
v -0.001259 -1.545202 0.001225
v -0.228575 -1.511410 0.001225
v -0.097180 -1.409637 0.723370
v -0.112960 -1.316482 0.723370
vn 0.1734 0.0564 -0.9832
vn 0.2732 0.8327 -0.4816
vn 0.0266 -0.3693 -0.9289
vn -0.2584 -0.3557 -0.8982
vn -0.3588 -0.0883 -0.9292
vn 0.2680 0.9050 -0.3304
vn 0.9837 0.0979 0.1508
vn 0.3151 -0.8897 -0.3304
vn -0.7488 -0.5746 -0.3304
vn -0.7779 0.5346 -0.3304
vn 0.5831 0.8026 -0.1256
vn 0.9259 -0.3008 0.2285
vn -0.3969 -0.9039 0.1598
vn -0.9435 -0.3066 -0.1256
vn -0.5831 0.8026 -0.1256
vn 0.7273 0.5381 0.4260
vn 0.7386 -0.5260 0.4217
vn -0.2723 -0.8587 0.4341
vn -0.8952 -0.0042 0.4457
vn -0.2823 0.8521 0.4407
vn -0.1947 0.2680 0.9435
vn -0.4749 0.6536 0.5893
vn -0.7218 0.5297 0.4454
vn -0.3151 -0.1024 0.9435
vn -0.7680 -0.2496 0.5898
vn -0.7288 -0.5234 0.4415
vn 0.0000 -0.3313 0.9435
vn 0.0000 -0.8158 0.5784
vn 0.2721 -0.8625 0.4267
vn 0.3151 -0.1024 0.9435
vn 0.7810 -0.2538 0.5707
vn 0.9068 -0.0086 0.4215
vn 0.1947 0.2680 0.9435
vn 0.4798 0.6604 0.5777
vn 0.2847 0.8552 0.4332
vn -0.2723 0.8394 0.4704
vn -0.5336 0.7345 0.4193
vn -0.7133 0.5172 0.4731
vn -0.8856 -0.0008 0.4644
vn -0.8710 -0.2830 0.4017
vn -0.7257 -0.5225 0.4476
vn -0.2680 -0.9050 0.3304
vn -0.2125 -0.9292 0.3024
vn 0.2718 -0.8686 0.4143
vn 0.7779 -0.5346 0.3304
vn 0.9342 -0.3035 0.1876
vn 0.9435 -0.0247 0.3304
vn 0.7238 0.5327 0.4386
vn 0.5406 0.7440 0.3927
vn 0.2768 0.8451 0.4573
vn -0.8666 0.2816 0.4120
vn -0.9342 0.3035 -0.1876
vn -0.9435 0.0247 -0.3304
vn -0.3479 -0.8930 0.2856
vn -0.1564 -0.9830 0.0958
vn -0.3977 -0.9035 0.1596
vn 0.7297 -0.6276 0.2716
vn 0.8806 -0.4659 0.0869
vn 0.7410 -0.6572 0.1375
vn 0.9578 0.0645 0.2800
vn 0.9850 -0.1470 0.0908
vn 0.7779 0.5346 -0.3304
vn 0.0000 0.9137 0.4063
vn 0.0000 0.9822 -0.1876
vn -0.2680 0.9050 -0.3304
vn -0.7050 0.5163 -0.4863
vn -0.7002 0.0360 -0.7130
vn -0.7488 -0.0385 -0.6617
vn -0.6284 -0.4089 -0.6617
vn -0.3568 -0.4911 -0.7947
vn -0.1947 -0.7240 -0.6617
vn 0.1947 -0.7240 -0.6617
vn 0.2496 -0.6561 -0.7122
vn 0.7097 -0.5121 -0.4838
vn -0.2732 0.8315 -0.4837
vn 0.0000 0.7677 -0.6408
vn 0.0000 0.1824 -0.9832
vn 0.8763 -0.0025 -0.4817
vn 0.7310 0.2375 -0.6397
vn 0.7080 0.5172 -0.4809
vn -0.9648 -0.2068 -0.1624
vn -0.9067 -0.1075 -0.4078
vn 0.1087 0.9858 0.1280
vn 0.9809 -0.1458 -0.1284
vn 0.9616 0.1629 -0.2209
vn -0.1604 0.9467 -0.2793
vn 0.1661 -0.9807 -0.1035
vn -0.2069 -0.9747 -0.0847
vn -0.1470 -0.9891 -0.0108
vn 0.1670 -0.9857 -0.0228
vn 0.2019 0.9417 -0.2691
vn 0.1093 0.9712 0.2119
vn -0.1443 0.9708 0.1915
vn 0.9715 -0.1646 -0.1707
vn 0.9823 -0.1664 0.0859
vn 0.9794 0.1659 0.1147
vn -0.9811 0.1458 -0.1276
vn 0.9024 0.1341 -0.4096
vn 0.9025 -0.1342 -0.4092
vn -0.9858 -0.1087 -0.1280
vn 0.1075 0.9067 0.4078
vn 0.1458 -0.9809 0.1284
vn -0.9036 0.1343 -0.4068
vn -0.9596 0.2102 -0.1870
vn -0.9844 0.1463 0.0975
vn -0.9875 -0.1468 0.0580
vn -0.1458 0.9811 0.1276
vn -0.9809 -0.1458 0.1286
vn -0.9809 0.1458 0.1284
vn 0.1458 0.9809 -0.1286
vn 0.9809 0.1458 -0.1286
vn -0.1343 0.9036 0.4068
vn 0.1341 0.9024 -0.4096
vn 0.1342 -0.9025 0.4092
vn -0.9752 -0.1652 -0.1476
vn 0.9559 0.2049 -0.2102
vn -0.2022 0.9430 -0.2642
vn 0.2088 -0.9739 -0.0894
vn -0.1662 -0.9811 -0.0992
vn -0.1936 -0.9807 -0.0267
vn 0.1470 -0.9890 -0.0166
vn 0.1602 0.9456 -0.2832
vn 0.1638 0.9672 0.1943
vn -0.1637 0.9664 0.1984
vn 0.9609 -0.2060 -0.1850
vn 0.9859 -0.1466 0.0804
vn 0.9859 0.1087 0.1274
vn -0.9662 0.1637 -0.1990
vn -0.9802 0.1759 0.0909
vn -0.9839 -0.1667 0.0639
usemtl Green
s off
f 14//1 27//1 26//1
f 15//2 27//2 29//2
f 14//3 26//3 31//3
f 14//4 31//4 33//4
f 14//5 33//5 30//5
f 15//6 29//6 36//6
f 16//7 28//7 38//7
f 17//8 32//8 40//8
f 18//9 34//9 42//9
f 19//10 35//10 44//10
f 15//11 36//11 39//11
f 16//12 38//12 41//12
f 17//13 40//13 43//13
f 18//14 42//14 45//14
f 19//15 44//15 37//15
f 20//16 46//16 51//16
f 21//17 47//17 53//17
f 22//18 48//18 54//18
f 23//19 49//19 55//19
f 24//20 50//20 52//20
f 52//21 55//21 25//21
f 52//22 50//22 55//22
f 50//23 23//23 55//23
f 55//24 54//24 25//24
f 55//25 49//25 54//25
f 49//26 22//26 54//26
f 54//27 53//27 25//27
f 54//28 48//28 53//28
f 48//29 21//29 53//29
f 53//30 51//30 25//30
f 53//31 47//31 51//31
f 47//32 20//32 51//32
f 51//33 52//33 25//33
f 51//34 46//34 52//34
f 46//35 24//35 52//35
f 37//36 50//36 24//36
f 37//37 44//37 50//37
f 44//38 23//38 50//38
f 45//39 49//39 23//39
f 45//40 42//40 49//40
f 42//41 22//41 49//41
f 43//42 48//42 22//42
f 43//43 40//43 48//43
f 40//44 21//44 48//44
f 41//45 47//45 21//45
f 41//46 38//46 47//46
f 38//47 20//47 47//47
f 39//48 46//48 20//48
f 39//49 36//49 46//49
f 36//50 24//50 46//50
f 44//51 45//51 23//51
f 44//52 35//52 45//52
f 35//53 18//53 45//53
f 42//54 43//54 22//54
f 42//55 34//55 43//55
f 34//56 17//56 43//56
f 40//57 41//57 21//57
f 40//58 32//58 41//58
f 32//59 16//59 41//59
f 38//60 39//60 20//60
f 38//61 28//61 39//61
f 28//62 15//62 39//62
f 36//63 37//63 24//63
f 36//64 29//64 37//64
f 29//65 19//65 37//65
f 30//66 35//66 19//66
f 30//67 33//67 35//67
f 33//68 18//68 35//68
f 33//69 34//69 18//69
f 33//70 31//70 34//70
f 31//71 17//71 34//71
f 31//72 32//72 17//72
f 31//73 26//73 32//73
f 26//74 16//74 32//74
f 29//75 30//75 19//75
f 29//76 27//76 30//76
f 27//77 14//77 30//77
f 26//78 28//78 16//78
f 26//79 27//79 28//79
f 27//80 15//80 28//80
usemtl Wood
f 101//81 12//81 69//81
f 59//82 96//82 58//82
f 6//83 4//83 64//83
f 9//84 56//84 57//84
f 74//85 70//85 78//85
f 73//86 68//86 77//86
f 75//87 71//87 76//87
f 100//88 71//88 12//88
f 67//89 72//89 8//89
f 67//90 75//90 76//90
f 74//91 68//91 11//91
f 64//92 74//92 6//92
f 5//93 77//93 64//93
f 78//94 13//94 75//94
f 7//95 78//95 75//95
f 66//96 74//96 78//96
f 81//97 58//97 60//97
f 87//98 95//98 56//98
f 57//99 95//99 88//99
f 83//100 58//100 63//100
f 3//101 93//101 4//101
f 7//102 85//102 84//102
f 60//103 96//103 97//103
f 73//104 69//104 10//104
f 65//105 73//105 5//105
f 8//106 82//106 65//106
f 5//107 4//107 86//107
f 8//108 2//108 1//108
f 5//109 2//109 65//109
f 80//110 61//110 87//110
f 80//111 56//111 79//111
f 86//112 93//112 92//112
f 87//113 98//113 99//113
f 84//114 90//114 89//114
f 101//115 100//115 12//115
f 59//82 94//82 96//82
f 6//83 3//83 4//83
f 9//84 79//84 56//84
f 74//116 11//116 70//116
f 73//117 10//117 68//117
f 75//118 13//118 71//118
f 100//119 76//119 71//119
f 67//120 76//120 72//120
f 67//121 7//121 75//121
f 74//122 77//122 68//122
f 64//123 77//123 74//123
f 5//124 73//124 77//124
f 78//125 70//125 13//125
f 7//126 66//126 78//126
f 66//127 6//127 74//127
f 81//97 63//97 58//97
f 87//98 99//98 95//98
f 57//99 56//99 95//99
f 83//100 59//100 58//100
f 3//101 91//101 93//101
f 7//102 67//102 85//102
f 60//103 58//103 96//103
f 73//128 101//128 69//128
f 65//129 82//129 73//129
f 8//130 72//130 82//130
f 5//107 64//107 4//107
f 8//108 65//108 2//108
f 5//109 86//109 2//109
f 80//110 62//110 61//110
f 80//111 87//111 56//111
f 86//112 4//112 93//112
f 87//113 61//113 98//113
f 84//114 85//114 90//114
