# Blender v2.77 (sub 0) OBJ File: ''
# www.blender.org
o Cylinder
v 0.285761 -0.737892 1.549926
v 0.261758 -0.981596 1.549926
v 0.190672 -1.215934 1.549926
v 0.075236 -1.431901 1.549926
v -0.080116 -1.621197 1.549926
v -0.269413 -1.776549 1.549926
v -0.485380 -1.891986 1.549926
v -0.719718 -1.963072 1.549926
v -0.963421 -1.987074 1.549926
v -0.963421 -0.737892 4.048289
v -1.207124 -1.963072 1.549926
v -1.441462 -1.891986 1.549926
v -1.657429 -1.776549 1.549926
v -1.846726 -1.621197 1.549926
v -2.002078 -1.431901 1.549926
v -2.117515 -1.215933 1.549926
v -2.188600 -0.981595 1.549926
v -2.212603 -0.737892 1.549926
v -2.188600 -0.494188 1.549926
v -2.117514 -0.259851 1.549926
v -2.002077 -0.043883 1.549926
v -1.846725 0.145413 1.549926
v -1.657429 0.300765 1.549926
v -1.441461 0.416202 1.549926
v -1.207123 0.487287 1.549926
v -0.963420 0.511289 1.549926
v -0.719716 0.487286 1.549926
v -0.485379 0.416201 1.549926
v -0.269411 0.300763 1.549926
v -0.080115 0.145411 1.549926
v 0.075237 -0.043886 1.549926
v 0.190673 -0.259853 1.549926
v 0.261758 -0.494191 1.549926
v -0.496718 -0.716245 0.171873
v -0.496718 -0.716245 1.379988
v -0.505939 -0.815701 0.171873
v -0.505939 -0.815701 1.379988
v -0.533248 -0.911334 0.171873
v -0.533248 -0.911334 1.379988
v -0.577595 -0.999470 0.171873
v -0.577595 -0.999470 1.379988
v -0.637276 -1.076722 0.171873
v -0.637276 -1.076722 1.379988
v -0.709997 -1.140121 0.171873
v -0.709997 -1.140121 1.379988
v -0.792965 -1.187230 0.171873
v -0.792965 -1.187230 1.379988
v -0.882989 -1.216240 0.171873
v -0.882989 -1.216240 1.379988
v -0.976612 -1.226036 0.171873
v -0.976612 -1.226036 1.379988
v -1.070235 -1.216240 0.171873
v -1.070235 -1.216240 1.379988
v -1.160260 -1.187230 0.171873
v -1.160260 -1.187230 1.379988
v -1.243227 -1.140121 0.171873
v -1.243227 -1.140121 1.379988
v -1.315948 -1.076722 0.171873
v -1.315948 -1.076722 1.379988
v -1.375630 -0.999470 0.171873
v -1.375630 -0.999470 1.379988
v -1.419977 -0.911334 0.171873
v -1.419977 -0.911334 1.379988
v -1.447285 -0.815700 0.171873
v -1.447285 -0.815700 1.379988
v -1.456506 -0.716245 0.171873
v -1.456506 -0.716245 1.379988
v -1.447285 -0.616790 0.171873
v -1.447285 -0.616790 1.379988
v -1.419976 -0.521157 0.171873
v -1.419976 -0.521157 1.379988
v -1.375629 -0.433021 0.171873
v -1.375629 -0.433021 1.379988
v -1.315948 -0.355769 0.171873
v -1.315948 -0.355769 1.379988
v -1.243227 -0.292370 0.171873
v -1.243227 -0.292370 1.379988
v -1.160259 -0.245261 0.171873
v -1.160259 -0.245261 1.379988
v -1.070234 -0.216251 0.171873
v -1.070234 -0.216251 1.379988
v -0.976612 -0.206455 0.171873
v -0.976612 -0.206455 1.379988
v -0.882989 -0.216251 0.171873
v -0.882989 -0.216251 1.379988
v -0.792964 -0.245261 0.171873
v -0.792964 -0.245261 1.379988
v -0.709997 -0.292371 0.171873
v -0.709997 -0.292371 1.379988
v -0.637275 -0.355770 0.171873
v -0.637275 -0.355770 1.379988
v -0.577594 -0.433022 0.171873
v -0.577594 -0.433022 1.379988
v -0.533248 -0.521158 0.171873
v -0.533248 -0.521158 1.379988
v -0.505939 -0.616791 0.171873
v -0.505939 -0.616791 1.379988
vn 0.8910 -0.0878 0.4455
vn 0.8567 -0.2599 0.4455
vn 0.7896 -0.4220 0.4455
vn 0.6921 -0.5680 0.4455
vn 0.5680 -0.6921 0.4455
vn 0.4220 -0.7896 0.4455
vn 0.2599 -0.8567 0.4455
vn 0.0878 -0.8910 0.4455
vn -0.0878 -0.8910 0.4455
vn -0.2599 -0.8567 0.4455
vn -0.4220 -0.7896 0.4455
vn -0.5680 -0.6921 0.4455
vn -0.6921 -0.5680 0.4455
vn -0.7896 -0.4220 0.4455
vn -0.8567 -0.2599 0.4455
vn -0.8910 -0.0878 0.4455
vn -0.8910 0.0878 0.4455
vn -0.8567 0.2599 0.4455
vn -0.7896 0.4220 0.4455
vn -0.6921 0.5680 0.4455
vn -0.5680 0.6921 0.4455
vn -0.4220 0.7896 0.4455
vn -0.2599 0.8567 0.4455
vn -0.0878 0.8910 0.4455
vn 0.0878 0.8910 0.4455
vn 0.2599 0.8567 0.4455
vn 0.4220 0.7896 0.4455
vn 0.5680 0.6921 0.4455
vn 0.6921 0.5680 0.4455
vn 0.7896 0.4220 0.4455
vn 0.8567 0.2599 0.4455
vn 0.8910 0.0878 0.4455
vn 0.0000 0.0000 -1.0000
vn 0.9957 -0.0923 0.0000
vn 0.9616 -0.2746 0.0000
vn 0.8933 -0.4495 0.0000
vn 0.7914 -0.6114 0.0000
vn 0.6571 -0.7538 0.0000
vn 0.4938 -0.8696 0.0000
vn 0.3067 -0.9518 0.0000
vn 0.1041 -0.9946 0.0000
vn -0.1041 -0.9946 0.0000
vn -0.3067 -0.9518 0.0000
vn -0.4938 -0.8696 0.0000
vn -0.6571 -0.7538 0.0000
vn -0.7914 -0.6114 0.0000
vn -0.8933 -0.4495 0.0000
vn -0.9616 -0.2746 0.0000
vn -0.9957 -0.0923 0.0000
vn -0.9957 0.0923 0.0000
vn -0.9616 0.2746 0.0000
vn -0.8933 0.4495 0.0000
vn -0.7914 0.6114 0.0000
vn -0.6571 0.7538 0.0000
vn -0.4938 0.8696 0.0000
vn -0.3067 0.9518 0.0000
vn -0.1041 0.9946 0.0000
vn 0.1041 0.9946 0.0000
vn 0.3067 0.9518 0.0000
vn 0.4938 0.8696 0.0000
vn 0.6571 0.7538 0.0000
vn 0.7914 0.6114 0.0000
vn 0.8933 0.4495 0.0000
vn -0.0000 0.0000 1.0000
vn 0.9616 0.2746 0.0000
vn 0.9957 0.0923 0.0000
s off
f 1//1 10//1 2//1
f 2//2 10//2 3//2
f 3//3 10//3 4//3
f 4//4 10//4 5//4
f 5//5 10//5 6//5
f 6//6 10//6 7//6
f 7//7 10//7 8//7
f 8//8 10//8 9//8
f 9//9 10//9 11//9
f 11//10 10//10 12//10
f 12//11 10//11 13//11
f 13//12 10//12 14//12
f 14//13 10//13 15//13
f 15//14 10//14 16//14
f 16//15 10//15 17//15
f 17//16 10//16 18//16
f 18//17 10//17 19//17
f 19//18 10//18 20//18
f 20//19 10//19 21//19
f 21//20 10//20 22//20
f 22//21 10//21 23//21
f 23//22 10//22 24//22
f 24//23 10//23 25//23
f 25//24 10//24 26//24
f 26//25 10//25 27//25
f 27//26 10//26 28//26
f 28//27 10//27 29//27
f 29//28 10//28 30//28
f 30//29 10//29 31//29
f 31//30 10//30 32//30
f 32//31 10//31 33//31
f 33//32 10//32 1//32
f 17//33 29//33 33//33
f 35//34 36//34 34//34
f 37//35 38//35 36//35
f 39//36 40//36 38//36
f 41//37 42//37 40//37
f 43//38 44//38 42//38
f 45//39 46//39 44//39
f 47//40 48//40 46//40
f 49//41 50//41 48//41
f 51//42 52//42 50//42
f 53//43 54//43 52//43
f 55//44 56//44 54//44
f 57//45 58//45 56//45
f 59//46 60//46 58//46
f 61//47 62//47 60//47
f 63//48 64//48 62//48
f 65//49 66//49 64//49
f 67//50 68//50 66//50
f 69//51 70//51 68//51
f 71//52 72//52 70//52
f 73//53 74//53 72//53
f 75//54 76//54 74//54
f 77//55 78//55 76//55
f 79//56 80//56 78//56
f 81//57 82//57 80//57
f 83//58 84//58 82//58
f 85//59 86//59 84//59
f 87//60 88//60 86//60
f 89//61 90//61 88//61
f 91//62 92//62 90//62
f 93//63 94//63 92//63
f 59//64 41//64 61//64
f 95//65 96//65 94//65
f 97//66 34//66 96//66
f 72//33 94//33 70//33
f 33//33 1//33 2//33
f 2//33 3//33 33//33
f 4//33 5//33 6//33
f 6//33 7//33 4//33
f 8//33 9//33 11//33
f 11//33 12//33 8//33
f 13//33 14//33 15//33
f 15//33 16//33 17//33
f 17//33 18//33 21//33
f 19//33 20//33 21//33
f 21//33 22//33 23//33
f 23//33 24//33 25//33
f 25//33 26//33 29//33
f 27//33 28//33 29//33
f 29//33 30//33 33//33
f 31//33 32//33 33//33
f 33//33 3//33 4//33
f 4//33 7//33 8//33
f 8//33 12//33 13//33
f 13//33 15//33 8//33
f 18//33 19//33 21//33
f 21//33 23//33 25//33
f 26//33 27//33 29//33
f 30//33 31//33 33//33
f 33//33 4//33 8//33
f 8//33 15//33 17//33
f 17//33 21//33 25//33
f 25//33 29//33 17//33
f 33//33 8//33 17//33
f 35//34 37//34 36//34
f 37//35 39//35 38//35
f 39//36 41//36 40//36
f 41//37 43//37 42//37
f 43//38 45//38 44//38
f 45//39 47//39 46//39
f 47//40 49//40 48//40
f 49//41 51//41 50//41
f 51//42 53//42 52//42
f 53//43 55//43 54//43
f 55//44 57//44 56//44
f 57//45 59//45 58//45
f 59//46 61//46 60//46
f 61//47 63//47 62//47
f 63//48 65//48 64//48
f 65//49 67//49 66//49
f 67//50 69//50 68//50
f 69//51 71//51 70//51
f 71//52 73//52 72//52
f 73//53 75//53 74//53
f 75//54 77//54 76//54
f 77//55 79//55 78//55
f 79//56 81//56 80//56
f 81//57 83//57 82//57
f 83//58 85//58 84//58
f 85//59 87//59 86//59
f 87//60 89//60 88//60
f 89//61 91//61 90//61
f 91//62 93//62 92//62
f 93//63 95//63 94//63
f 39//64 37//64 65//64
f 35//64 97//64 69//64
f 95//64 93//64 71//64
f 91//64 89//64 75//64
f 87//64 85//64 81//64
f 83//64 81//64 85//64
f 79//64 77//64 87//64
f 75//64 73//64 91//64
f 71//64 69//64 97//64
f 67//64 65//64 37//64
f 63//64 61//64 39//64
f 59//64 57//64 43//64
f 55//64 53//64 49//64
f 51//64 49//64 53//64
f 47//64 45//64 55//64
f 43//64 41//64 59//64
f 37//64 35//64 67//64
f 93//64 73//64 71//64
f 87//64 81//64 79//64
f 77//64 89//64 87//64
f 69//64 67//64 35//64
f 61//64 41//64 39//64
f 55//64 49//64 47//64
f 45//64 57//64 55//64
f 97//64 95//64 71//64
f 77//64 75//64 89//64
f 65//64 63//64 39//64
f 45//64 43//64 57//64
f 91//64 73//64 93//64
f 95//65 97//65 96//65
f 97//66 35//66 34//66
f 96//33 34//33 66//33
f 36//33 38//33 64//33
f 40//33 42//33 58//33
f 44//33 46//33 56//33
f 48//33 50//33 52//33
f 52//33 54//33 48//33
f 56//33 58//33 42//33
f 60//33 62//33 40//33
f 64//33 66//33 34//33
f 68//33 70//33 96//33
f 72//33 74//33 90//33
f 76//33 78//33 88//33
f 80//33 82//33 84//33
f 84//33 86//33 80//33
f 88//33 90//33 74//33
f 92//33 94//33 72//33
f 34//33 36//33 64//33
f 42//33 44//33 56//33
f 48//33 54//33 46//33
f 58//33 60//33 40//33
f 66//33 68//33 96//33
f 74//33 76//33 88//33
f 80//33 86//33 78//33
f 90//33 92//33 72//33
f 38//33 62//33 64//33
f 54//33 56//33 46//33
f 70//33 94//33 96//33
f 86//33 88//33 78//33
f 40//33 62//33 38//33
